<?xml version="1.0" encoding="UTF-8" standalone="no"?>
<!-- Uploaded to: SVG Repo, www.svgrepo.com, Generator: SVG Repo Mixer Tools -->

<svg
   width="666.66669"
   height="666.66669"
   viewBox="0 0 20.000001 20.000001"
   fill="none"
   version="1.1"
   id="svg4554"
   sodipodi:docname="delete-svgrepo-com.svg"
   inkscape:export-filename="delete-svgrepo-com.svg"
   inkscape:export-xdpi="96"
   inkscape:export-ydpi="96"
   inkscape:version="1.2.1 (9c6d41e410, 2022-07-14)"
   xmlns:inkscape="http://www.inkscape.org/namespaces/inkscape"
   xmlns:sodipodi="http://sodipodi.sourceforge.net/DTD/sodipodi-0.dtd"
   xmlns="http://www.w3.org/2000/svg"
   xmlns:svg="http://www.w3.org/2000/svg">
  <defs
     id="defs4558" />
  <sodipodi:namedview
     id="namedview4556"
     pagecolor="#ffffff"
     bordercolor="#000000"
     borderopacity="0.25"
     inkscape:showpageshadow="2"
     inkscape:pageopacity="0.0"
     inkscape:pagecheckerboard="0"
     inkscape:deskcolor="#d1d1d1"
     showgrid="false"
     inkscape:zoom="8.43"
     inkscape:cx="48.635825"
     inkscape:cy="33.867141"
     inkscape:window-width="2400"
     inkscape:window-height="1271"
     inkscape:window-x="-9"
     inkscape:window-y="-9"
     inkscape:window-maximized="1"
     inkscape:current-layer="svg4554" />
  <path
     d="M 0.1875,0.075 A 0.075,0.075 0 0 1 0.2625,0 h 0.225 a 0.075,0.075 0 0 1 0.075,0.075 V 0.15 h 0.15 a 0.0375,0.0375 0 1 1 0,0.075 H 0.6724125 L 0.6399,0.68032501 a 0.075,0.075 0 0 1 -0.0748125,0.069675 H 0.184875 A 0.075,0.075 0 0 1 0.1100625,0.68032501 L 0.077625,0.225 H 0.0375 a 0.0375,0.0375 0 0 1 0,-0.075 h 0.15 z m 0.075,0.075 h 0.225 V 0.075 H 0.2625 Z M 0.152775,0.225 0.1849125,0.67500001 H 0.56512501 L 0.59726251,0.225 Z M 0.30000001,0.3 a 0.0375,0.0375 0 0 1 0.0375,0.0375 v 0.225 a 0.0375,0.0375 0 1 1 -0.075,0 v -0.225 a 0.0375,0.0375 0 0 1 0.0375,-0.0375 z m 0.15,0 a 0.0375,0.0375 0 0 1 0.0375,0.0375 v 0.225 a 0.0375,0.0375 0 1 1 -0.075,0 v -0.225 a 0.0375,0.0375 0 0 1 0.0375,-0.0375 z"
     fill="#0d0d0d"
     id="path4552"
     style="stroke-width:0.0375" />
</svg>
