<?xml version="1.0" encoding="UTF-8" standalone="no"?>
<svg
   width="18.00004"
   height="19"
   viewBox="0 0 18.00004 19"
   fill="none"
   version="1.1"
   id="svg16"
   xmlns="http://www.w3.org/2000/svg"
   xmlnsSvg="http://www.w3.org/2000/svg">
  <defs
     id="defs20" />
  <path
     fill-rule="evenodd"
     clip-rule="evenodd"
     d="M 18.00004,4 H 0 v 3 c 1.10457,0 2,0.89543 2,2 v 4 c 0,2.8284 0,4.2426 0.87868,5.1213 C 3.75736,19 5.17157,19 8.00004,19 h 2 c 2.8284,0 4.2426,0 5.1213,-0.8787 0.8787,-0.8787 0.8787,-2.2929 0.8787,-5.1213 V 9 c 0,-1.10457 0.8954,-2 2,-2 z m -10.5,5 C 7.50004,8.4477 7.05224,8 6.5,8 5.94772,8 5.5,8.4477 5.5,9 v 5 c 0,0.5523 0.44772,1 1,1 0.55224,0 1.00004,-0.4477 1.00004,-1 z m 5,0 c 0,-0.5523 -0.4478,-1 -1,-1 -0.5523,0 -1,0.4477 -1,1 v 5 c 0,0.5523 0.4477,1 1,1 0.5522,0 1,-0.4477 1,-1 z"
     fill="#222222"
     id="path12" />
  <path
     d="M 7.06804,1.37059 C 7.18204,1.26427 7.43314,1.17033 7.78244,1.10332 8.13174,1.03632 8.55964,1 8.99994,1 c 0.4403,0 0.8682,0.03632 1.2175,0.10332 0.3493,0.06701 0.6004,0.16095 0.7144,0.26727"
     stroke="#222222"
     stroke-width="2"
     stroke-linecap="round"
     id="path14" />
</svg>
